<?xml version="1.0" encoding="iso-8859-1"?>
<!-- Generator: Adobe Illustrator 19.1.0, SVG Export Plug-In . SVG Version: 6.00 Build 0)  -->
<svg version="1.1" id="Capa_1" xmlns="http://www.w3.org/2000/svg" xmlns:xlink="http://www.w3.org/1999/xlink" x="0px" y="0px"
	 viewBox="0 0 333.842 333.842" style="enable-background:new 0 0 333.842 333.842;" xml:space="preserve">
<g>
	<path d="M166.911,333.832C74.879,333.832,0,258.96,0,166.921S74.873,0.01,166.911,0.01c92.045,0,166.931,74.879,166.931,166.918
		S258.956,333.832,166.911,333.832z M166.911,12.863c-84.95,0-154.058,69.108-154.058,154.064
		c0,84.943,69.108,154.058,154.058,154.058c84.956,0,154.077-69.114,154.077-154.058C320.982,81.971,251.868,12.863,166.911,12.863z
		 M202.471,216.999c0-5.321-4.319-9.64-9.64-9.64h-51.826c-5.321,0-9.64,4.319-9.64,9.64c0,5.321,4.319,9.64,9.64,9.64h51.826
		C198.152,226.639,202.471,222.32,202.471,216.999z M238.089,123.039c-10.656,0-19.293,8.631-19.293,19.293
		c0,10.649,8.638,19.293,19.293,19.293s19.293-8.644,19.293-19.293C257.382,131.67,248.744,123.039,238.089,123.039z
		 M265.19,131.072c0-5.328-4.319-9.64-9.64-9.64h-68.009c-5.321,0-9.64,4.312-9.64,9.64c0,5.328,4.319,9.64,9.64,9.64h68.009
		C260.872,140.712,265.19,136.4,265.19,131.072z M127.001,123.039c-10.656,0-19.293,8.631-19.293,19.293
		c0,10.649,8.638,19.293,19.293,19.293s19.293-8.644,19.293-19.293C146.294,131.67,137.656,123.039,127.001,123.039z
		 M154.103,131.072c0-5.328-4.319-9.64-9.64-9.64H76.454c-5.321,0-9.64,4.312-9.64,9.64c0,5.328,4.319,9.64,9.64,9.64h68.009
		C149.784,140.712,154.103,136.4,154.103,131.072z"/>
</g>
<g>
</g>
<g>
</g>
<g>
</g>
<g>
</g>
<g>
</g>
<g>
</g>
<g>
</g>
<g>
</g>
<g>
</g>
<g>
</g>
<g>
</g>
<g>
</g>
<g>
</g>
<g>
</g>
<g>
</g>
</svg>
