<?xml version="1.0" ?><svg enable-background="new 0 0 512 512" id="Layer_1" version="1.1" viewBox="0 0 512 512" xml:space="preserve" xmlns="http://www.w3.org/2000/svg" xmlns:xlink="http://www.w3.org/1999/xlink"><g><g><linearGradient gradientUnits="userSpaceOnUse" id="SVGID_1_" x1="0.0000038" x2="512" y1="256" y2="256"><stop offset="0" style="stop-color:#F35CB5"/><stop offset="1" style="stop-color:#EC008C"/></linearGradient><circle cx="256" cy="256" fill="url(#SVGID_1_)" r="256"/><linearGradient gradientUnits="userSpaceOnUse" id="SVGID_2_" x1="42.6666679" x2="469.3333435" y1="256.0005188" y2="256.0005188"><stop offset="0" style="stop-color:#EC008C"/><stop offset="1" style="stop-color:#F35CB5"/></linearGradient><path d="M256,469.3338623c-117.6314697,0-213.3333282-95.7018738-213.3333282-213.3333435    c0-117.6309204,95.7018585-213.333313,213.3333282-213.333313c117.6357422,0,213.3333435,95.7024002,213.3333435,213.333313    C469.3333435,373.6319885,373.6357422,469.3338623,256,469.3338623z" fill="url(#SVGID_2_)"/></g><path d="M264,144c-66.2741394,0-120,53.7258606-120,120c0,66.2746582,53.7258606,120,120,120   c66.2735901,0,120-53.7253418,120-120C384,197.7258606,330.2735901,144,264,144z M205.1515503,226.599472   c0-10.4128113,8.440979-18.8544006,18.8537903-18.8544006c10.412796,0,18.8538666,8.4415894,18.8538666,18.8544006   c0,10.412796-8.4410706,18.8549347-18.8538666,18.8549347C213.5925293,245.4544067,205.1515503,237.0122681,205.1515503,226.599472   z M264,346.1237488c-26.7509308,0-48.4377747-13.9957581-48.4377747-31.2597351   c0-17.2640076,21.6868439-31.2592163,48.4377747-31.2592163c26.7515564,0,48.4373474,13.9952087,48.4373474,31.2592163   C312.4373474,332.1279907,290.7515564,346.1237488,264,346.1237488z M303.9942322,245.4544067   c-10.4129028,0-18.8539734-8.4421387-18.8539734-18.8549347c0-10.4128113,8.4410706-18.8544006,18.8539734-18.8544006   c10.4132385,0,18.8548279,8.4415894,18.8548279,18.8544006   C322.8490601,237.0122681,314.4074707,245.4544067,303.9942322,245.4544067z" opacity="0.3"/><path d="M256,136c-66.2741394,0-120,53.7258606-120,120c0,66.2746582,53.7258606,120,120,120   c66.2735901,0,120-53.7253418,120-120C376,189.7258606,322.2735901,136,256,136z M197.1515503,218.599472   c0-10.4128113,8.440979-18.8544006,18.8537903-18.8544006c10.412796,0,18.8538666,8.4415894,18.8538666,18.8544006   c0,10.412796-8.4410706,18.8549347-18.8538666,18.8549347C205.5925293,237.4544067,197.1515503,229.0122681,197.1515503,218.599472   z M256,338.1237488c-26.7509308,0-48.4377747-13.9957581-48.4377747-31.2597351   c0-17.2640076,21.6868439-31.2592163,48.4377747-31.2592163c26.7515564,0,48.4373474,13.9952087,48.4373474,31.2592163   C304.4373474,324.1279907,282.7515564,338.1237488,256,338.1237488z M295.9942322,237.4544067   c-10.4129028,0-18.8539734-8.4421387-18.8539734-18.8549347c0-10.4128113,8.4410706-18.8544006,18.8539734-18.8544006   c10.4132385,0,18.8548279,8.4415894,18.8548279,18.8544006   C314.8490601,229.0122681,306.4074707,237.4544067,295.9942322,237.4544067z" fill="#FFFFFF"/></g></svg>