<?xml version="1.0" encoding="utf-8"?>
<!-- Generator: Adobe Illustrator 17.1.0, SVG Export Plug-In . SVG Version: 6.00 Build 0)  -->
<!DOCTYPE svg PUBLIC "-//W3C//DTD SVG 1.1//EN" "http://www.w3.org/Graphics/SVG/1.1/DTD/svg11.dtd">
<svg version="1.1" id="big-smile-smiley" xmlns="http://www.w3.org/2000/svg" xmlns:xlink="http://www.w3.org/1999/xlink" x="0px"
	 y="0px" viewBox="0 0 1010 1010" enable-background="new 0 0 1010 1010" xml:space="preserve">
<g id="big-smile-smiley-big-smile-smiley">
	<circle id="big-smile-smiley-label" fill="#7CCACB" cx="505" cy="505" r="505"/>
	<g id="big-smile-smiley-happy-message">
		<g>
			<path fill="#FBCD64" d="M787.7959,505c0,156.1719-126.624,282.7959-282.7959,282.7959
				c-156.1929,0-282.8008-126.624-282.8008-282.7959c0-156.1929,126.6079-282.8066,282.8008-282.8066
				C661.1719,222.1934,787.7959,348.8071,787.7959,505z"/>
		</g>
		<g>
			<g>
				<g>
					<path fill="#BC9A4B" d="M689.4121,413.8062c-11.7217-27.7989-38.9551-45.7085-69.3232-45.7085c-0.2803,0-0.5401,0-0.8203,0
						c-30.5762,0-57.8194,17.915-69.4786,45.7294c-2.8662,6.8624,0.3633,14.753,7.2256,17.629
						c6.8633,2.8813,14.7432-0.3736,17.6192-7.2105c9.0429-21.5747,29.6621-29.2109,44.8105-29.2109c0.0723,0,0.1562,0,0.2285,0
						c15.252,0.104,35.7676,7.5273,44.9141,29.2319c2.1699,5.1392,7.1533,8.2432,12.4277,8.2432
						c1.7238,0,3.5098-0.3423,5.2119-1.064C689.0801,428.5542,692.2988,420.6582,689.4121,413.8062z"/>
					<path fill="#BC9A4B" d="M388.167,372.9668c-0.1973,0.0054-0.3945,0.0107-0.5869,0c-27.8867,0-53.3135,15.0029-66.4209,39.2197
						c-3.5303,6.541-1.106,14.7119,5.4453,18.252c2.0244,1.1006,4.2256,1.625,6.3955,1.625c4.7759,0,9.4063-2.5591,11.8516-7.0655
						c8.3838-15.4951,24.7461-25.0991,42.8271-25.0991c0.1353,0,0.2549,0,0.3897,0c17.9096,0,34.2412,9.5982,42.6455,25.0943
						c3.5561,6.5512,11.7426,8.9755,18.2578,5.414c6.541-3.5449,8.9702-11.7217,5.414-18.2568
						C441.2573,387.959,415.8721,372.9668,388.167,372.9668z"/>
				</g>
				<path fill="#EA6157" d="M504.9897,682.29c-99.7334-0.0205-181.2871-77.1201-188.5288-174.9746h377.084
					C686.2666,605.1699,604.6709,682.2695,504.9897,682.29z"/>
			</g>
		</g>
	</g>
</g>
</svg>
