<?xml version="1.0" encoding="iso-8859-1"?>
<!-- Generator: Adobe Illustrator 21.1.0, SVG Export Plug-In . SVG Version: 6.00 Build 0)  -->
<svg version="1.1" id="Layer_1" xmlns="http://www.w3.org/2000/svg" xmlns:xlink="http://www.w3.org/1999/xlink" x="0px" y="0px"
	 viewBox="0 0 24 24" enable-background="new 0 0 24 24" xml:space="preserve">
<g>
	<path fill="#303C42" d="M17.5,4H17V1.5C17,0.6728516,16.3271484,0,15.5,0h-7C7.6728516,0,7,0.6728516,7,1.5V4H6.5
		C4.0185547,4,2,6.0185547,2,8.5v8c0,2.3102417,1.7561646,4.1970215,4,4.4494629V23.5C6,23.7763672,6.2236328,24,6.5,24h11
		c0.2763672,0,0.5-0.2236328,0.5-0.5v-2.5505371c2.2438354-0.2524414,4-2.1392212,4-4.4494629v-8C22,6.0185547,19.9814453,4,17.5,4z
		"/>
	<path fill="#FDD837" d="M8,1.5C8,1.2246094,8.2246094,1,8.5,1h7C15.7753906,1,16,1.2246094,16,1.5V4H8V1.5z"/>
	<rect x="7" y="21" fill="#FDD837" width="10" height="2"/>
	<path fill="#FDD837" d="M21,16.5c0,1.9296875-1.5703125,3.5-3.5,3.5h-11C4.5703125,20,3,18.4296875,3,16.5v-8
		C3,6.5703125,4.5703125,5,6.5,5h11C19.4296875,5,21,6.5703125,21,8.5V16.5z"/>
	<path opacity="0.2" fill="#FFFFFF" d="M9.8124924,1H8.5C8.2246094,1,8,1.2246094,8,1.5V4h1.5V1.5
		C9.5,1.2246094,9.6403809,1,9.8124924,1z"/>
	<path opacity="0.1" fill="#010101" d="M15.5,1h-1.3125076C14.3596191,1,14.5,1.2246094,14.5,1.5V4H16V1.5
		C16,1.2246094,15.7753906,1,15.5,1z"/>
	<rect x="7" y="21" opacity="0.2" fill="#FFFFFF" width="1.111084" height="2"/>
	<rect x="15.888916" y="21" opacity="0.1" fill="#010101" width="1.111084" height="2"/>
	<path opacity="0.2" fill="#FFFFFF" d="M5,16.5v-8C5,6.5703125,6.2213745,5,7.722229,5H6.5C4.5703125,5,3,6.5703125,3,8.5v8
		C3,18.4296875,4.5703125,20,6.5,20h1.222229C6.2213745,20,5,18.4296875,5,16.5z"/>
	<path opacity="0.1" fill="#010101" d="M17.5,5h-1.222229C17.7786255,5,19,6.5703125,19,8.5v8
		c0,1.9296875-1.2213745,3.5-2.722229,3.5H17.5c1.9296875,0,3.5-1.5703125,3.5-3.5v-8C21,6.5703125,19.4296875,5,17.5,5z"/>
	<path fill="#303C42" d="M14.9609375,14.6650391C14.1855469,15.5263672,13.1337891,16,12,16
		s-2.1855469-0.4736328-2.9609375-1.3349609c-0.1855469-0.2050781-0.5009766-0.2236328-0.7060547-0.0361328
		c-0.2050781,0.1845703-0.2216797,0.5009766-0.0361328,0.7060547C9.25,16.3925781,10.5996094,17,12,17
		s2.75-0.6074219,3.703125-1.6650391c0.1855469-0.2050781,0.1689453-0.5214844-0.0361328-0.7060547
		C15.4619141,14.4423828,15.1464844,14.4609375,14.9609375,14.6650391z"/>
	<circle fill="#303C42" cx="9" cy="11" r="1"/>
	<circle fill="#303C42" cx="15" cy="11" r="1"/>
	<linearGradient id="SVGID_1_" gradientUnits="userSpaceOnUse" x1="9.5" y1="18.5" x2="15.5" y2="24.5">
		<stop  offset="0" style="stop-color:#010101;stop-opacity:0.1"/>
		<stop  offset="1" style="stop-color:#010101;stop-opacity:0"/>
	</linearGradient>
	<polygon fill="url(#SVGID_1_)" points="17,23 17,21 7,21 9,23 	"/>
	<linearGradient id="SVGID_2_" gradientUnits="userSpaceOnUse" x1="1.9046832" y1="7.7072372" x2="22.1577549" y2="17.1513996">
		<stop  offset="0" style="stop-color:#FFFFFF;stop-opacity:0.2"/>
		<stop  offset="1" style="stop-color:#FFFFFF;stop-opacity:0"/>
	</linearGradient>
	<path fill="url(#SVGID_2_)" d="M17.5,4H17V1.5C17,0.6728516,16.3271484,0,15.5,0h-7C7.6728516,0,7,0.6728516,7,1.5V4H6.5
		C4.0185547,4,2,6.0185547,2,8.5v8c0,2.3102417,1.7561646,4.1970215,4,4.4494629V23.5C6,23.7763672,6.2236328,24,6.5,24h11
		c0.2763672,0,0.5-0.2236328,0.5-0.5v-2.5505371c2.2438354-0.2524414,4-2.1392212,4-4.4494629v-8C22,6.0185547,19.9814453,4,17.5,4z
		"/>
</g>
<g>
</g>
<g>
</g>
<g>
</g>
<g>
</g>
<g>
</g>
<g>
</g>
<g>
</g>
<g>
</g>
<g>
</g>
<g>
</g>
<g>
</g>
<g>
</g>
<g>
</g>
<g>
</g>
<g>
</g>
</svg>
